<svg width="1200" height="720" viewBox="0 0 1200 720" fill="none" xmlns="http://www.w3.org/2000/svg">
  <rect width="1200" height="720" rx="40" fill="#EAF3FB"/>
  <rect x="74" y="80" width="1052" height="560" rx="36" fill="url(#g)"/>
  <rect x="160" y="160" width="300" height="360" rx="28" fill="rgba(255,255,255,0.42)"/>
  <rect x="210" y="216" width="200" height="24" rx="12" fill="#43638C"/>
  <rect x="210" y="264" width="160" height="16" rx="8" fill="#7189A5"/>
  <rect x="210" y="304" width="200" height="16" rx="8" fill="#7189A5"/>
  <rect x="210" y="344" width="132" height="16" rx="8" fill="#7189A5"/>
  <circle cx="762" cy="276" r="116" fill="rgba(255,255,255,0.26)"/>
  <path d="M700 336C734 282 804 244 870 244" stroke="#223C5B" stroke-width="18" stroke-linecap="round"/>
  <path d="M692 414C744 438 804 440 860 402" stroke="#223C5B" stroke-width="18" stroke-linecap="round"/>
  <text x="160" y="590" fill="#223C5B" font-family="Georgia, serif" font-size="54" font-weight="700">Amazon Analytics</text>
  <defs>
    <linearGradient id="g" x1="128" y1="118" x2="1078" y2="606" gradientUnits="userSpaceOnUse">
      <stop stop-color="#DDE7F3"/>
      <stop offset="0.48" stop-color="#ADD1F3"/>
      <stop offset="1" stop-color="#43638C"/>
    </linearGradient>
  </defs>
</svg>
